<svg data-v-423bf9ae="" xmlns="http://www.w3.org/2000/svg" viewBox="0 0 179.86440368202324 60" class="font"><!----><!----><!----><g data-v-423bf9ae="" id="d8df996e-0158-4e76-b2bc-26fe5a42265d" fill="black" transform="matrix(6.7796607247191725,0,0,6.7796607247191725,-3.7288122063942666,-38.77965839980139)"><path d="M1.78 6.53L0.55 6.30L0.61 5.89L7.10 5.89L6.85 8.09L6.38 8.02L6.19 6.38L2.80 6.38L2.80 9.94L4.92 9.94L5.20 9.05L5.69 8.98L5.49 11.65L5.02 11.72L4.85 10.44L2.80 10.44L2.79 13.74L4.44 13.93L4.35 14.40L0.59 14.40L0.62 14L1.78 13.74L1.78 6.53ZM12.58 13.49L12.50 13.49Q11.78 14.56 10.60 14.56L10.60 14.56Q9.04 14.56 9.04 12.52L9.04 12.52L9.04 9.22L8.05 8.93L8.10 8.57L9.80 8.42L9.91 8.54L9.91 12.23Q9.91 13.81 11.09 13.81L11.09 13.81Q11.87 13.81 12.50 13.12L12.50 13.12L12.50 9.24L11.42 9.00L11.46 8.59L13.28 8.42L13.38 8.54L13.38 12.87Q13.38 13.38 13.52 13.61Q13.67 13.84 14.05 13.92L14.05 13.92L14.42 14L14.38 14.40Q13.91 14.54 13.49 14.54Q13.07 14.54 12.82 14.27Q12.58 13.99 12.58 13.58L12.58 13.58L12.58 13.49ZM16.17 12.98L16.17 12.98Q16.17 13.34 16.41 13.63Q16.65 13.91 17.04 13.91Q17.43 13.91 17.80 13.68Q18.16 13.45 18.39 13.13L18.39 13.13L18.39 11.46Q17.27 11.65 16.72 12.00Q16.17 12.35 16.17 12.98ZM15.24 13.24L15.24 13.24Q15.24 12.39 16.01 11.82Q16.78 11.25 18.39 11.11L18.39 11.11L18.39 10.78Q18.39 9.82 18.12 9.32Q17.84 8.82 17.14 8.82L17.14 8.82Q16.75 8.82 16.61 8.96Q16.47 9.11 16.40 9.35Q16.32 9.59 16.22 10.29L16.22 10.29Q15.47 10.29 15.47 9.71L15.47 9.71Q15.47 9.37 15.81 9.04Q16.16 8.71 16.66 8.51Q17.17 8.32 17.63 8.32L17.63 8.32Q18.48 8.32 18.87 8.83Q19.26 9.34 19.26 10.42L19.26 10.42L19.26 12.82Q19.26 13.35 19.38 13.59Q19.51 13.83 19.94 13.90L19.94 13.90L20.34 13.97L20.28 14.38Q19.69 14.52 19.34 14.52Q18.99 14.52 18.75 14.25Q18.50 13.98 18.50 13.60L18.50 13.60L18.50 13.50L18.45 13.50Q18.29 13.88 17.80 14.22Q17.32 14.57 16.68 14.57Q16.04 14.57 15.64 14.21Q15.24 13.85 15.24 13.24ZM23.60 8.86Q22.85 8.86 22.41 9.52Q21.96 10.18 21.96 11.35Q21.96 12.52 22.40 13.19Q22.84 13.87 23.63 13.87L23.63 13.87Q24.05 13.87 24.50 13.63Q24.94 13.39 25.18 13.08L25.18 13.08L25.18 9.71Q24.90 9.31 24.46 9.08Q24.03 8.86 23.60 8.86L23.60 8.86ZM21.02 11.71L21.02 11.71Q21.02 10.97 21.27 10.32Q21.52 9.67 21.94 9.24L21.94 9.24Q22.82 8.32 23.93 8.32L23.93 8.32Q24.27 8.32 24.64 8.42Q25.02 8.52 25.19 8.65L25.19 8.65L25.25 8.65L25.15 7.75L25.15 6.53L24.11 6.23L24.17 5.87L25.94 5.72L26.04 5.84L26.04 12.88Q26.04 13.60 26.33 13.78L26.33 13.78Q26.48 13.87 26.71 13.92L26.71 13.92L27.08 14L27.02 14.41Q26.56 14.55 26.14 14.55Q25.72 14.55 25.48 14.27Q25.25 13.99 25.25 13.55L25.25 13.55L25.25 13.50L25.18 13.50Q24.42 14.54 23.20 14.54L23.20 14.54Q22.25 14.54 21.64 13.79Q21.02 13.05 21.02 11.71Z"></path></g><!----><!----></svg>